<svg width="213" height="26" viewBox="0 0 213 26" fill="none" xmlns="http://www.w3.org/2000/svg">
<path d="M0.064 24.5L4.544 2.1H14.496C17.504 2.1 19.8187 2.75067 21.44 4.052C23.0827 5.35333 23.904 7.17733 23.904 9.524C23.904 11.4013 23.4347 13.0547 22.496 14.484C21.5787 15.9133 20.2667 17.0227 18.56 17.812C16.8747 18.6013 14.88 18.996 12.576 18.996H5.344L9.376 15.7L7.616 24.5H0.064ZM9.184 16.596L6.528 13.172H12.96C14.0053 13.172 14.816 12.916 15.392 12.404C15.968 11.8707 16.256 11.1347 16.256 10.196C16.256 9.38533 16 8.80933 15.488 8.468C14.9973 8.10533 14.3147 7.924 13.44 7.924H7.584L11.616 4.404L9.184 16.596ZM32.7413 25.012C31.4186 25.012 30.1493 24.916 28.9333 24.724C27.7173 24.532 26.6079 24.2653 25.6053 23.924C24.6239 23.5613 23.7706 23.1667 23.0452 22.74L25.9573 17.172C26.7893 17.6413 27.6213 18.036 28.4533 18.356C29.3066 18.6547 30.1493 18.8787 30.9813 19.028C31.8346 19.1773 32.6773 19.252 33.5093 19.252C34.1706 19.252 34.7146 19.1987 35.1413 19.092C35.5893 18.9853 35.9199 18.836 36.1333 18.644C36.3679 18.4307 36.4853 18.196 36.4853 17.94C36.4853 17.5987 36.2933 17.3213 35.9093 17.108C35.5253 16.8947 35.0133 16.7027 34.3733 16.532C33.7546 16.3613 33.0613 16.1907 32.2933 16.02C31.5466 15.828 30.7893 15.5933 30.0213 15.316C29.2533 15.0173 28.5493 14.644 27.9093 14.196C27.2906 13.748 26.7893 13.1827 26.4053 12.5C26.0213 11.8173 25.8293 10.9853 25.8293 10.004C25.8293 8.29733 26.2773 6.81467 27.1733 5.556C28.0906 4.29733 29.3919 3.32667 31.0773 2.644C32.7839 1.94 34.8106 1.588 37.1573 1.588C38.8213 1.588 40.3679 1.75867 41.7973 2.1C43.2479 2.42 44.4959 2.88933 45.5413 3.508L42.8213 9.012C41.9253 8.45733 40.9439 8.04133 39.8773 7.764C38.8319 7.48667 37.7653 7.348 36.6773 7.348C35.9519 7.348 35.3439 7.42267 34.8533 7.572C34.3626 7.7 33.9893 7.88133 33.7333 8.116C33.4986 8.35067 33.3813 8.596 33.3813 8.852C33.3813 9.19333 33.5733 9.48133 33.9573 9.716C34.3413 9.92933 34.8533 10.1213 35.4933 10.292C36.1333 10.4413 36.8266 10.612 37.5733 10.804C38.3413 10.9747 39.0986 11.1987 39.8453 11.476C40.6133 11.732 41.3173 12.084 41.9573 12.532C42.5973 12.9587 43.1093 13.5133 43.4933 14.196C43.8773 14.8573 44.0693 15.6787 44.0693 16.66C44.0693 18.324 43.6106 19.7853 42.6933 21.044C41.7759 22.2813 40.4639 23.252 38.7573 23.956C37.0719 24.66 35.0666 25.012 32.7413 25.012ZM44.8765 24.5L49.3565 2.1H56.9085L53.6125 18.644H63.7245L62.5405 24.5H44.8765ZM74.3865 24.692C72.7225 24.692 71.1225 24.4253 69.5865 23.892C68.0718 23.3373 66.8985 22.6333 66.0665 21.78L66.9945 19.956C67.7838 20.724 68.8398 21.3747 70.1625 21.908C71.5065 22.42 72.9145 22.676 74.3865 22.676C75.7945 22.676 76.9358 22.5053 77.8105 22.164C78.7065 21.8013 79.3572 21.3213 79.7625 20.724C80.1892 20.1267 80.4025 19.4653 80.4025 18.74C80.4025 17.8653 80.1465 17.1613 79.6345 16.628C79.1438 16.0947 78.4932 15.6787 77.6825 15.38C76.8718 15.06 75.9758 14.7827 74.9945 14.548C74.0132 14.3133 73.0318 14.068 72.0505 13.812C71.0692 13.5347 70.1625 13.172 69.3305 12.724C68.5198 12.276 67.8585 11.6893 67.3465 10.964C66.8558 10.2173 66.6105 9.24667 66.6105 8.052C66.6105 6.94267 66.8985 5.92933 67.4745 5.012C68.0718 4.07333 68.9785 3.32667 70.1945 2.772C71.4105 2.196 72.9678 1.908 74.8665 1.908C76.1252 1.908 77.3732 2.08933 78.6105 2.452C79.8478 2.79333 80.9145 3.27333 81.8105 3.892L81.0105 5.78C80.0505 5.14 79.0265 4.67067 77.9385 4.372C76.8718 4.07333 75.8372 3.924 74.8345 3.924C73.4905 3.924 72.3812 4.10533 71.5065 4.468C70.6318 4.83067 69.9812 5.32133 69.5545 5.94C69.1492 6.53733 68.9465 7.22 68.9465 7.988C68.9465 8.86267 69.1918 9.56667 69.6825 10.1C70.1945 10.6333 70.8558 11.0493 71.6665 11.348C72.4985 11.6467 73.4052 11.9133 74.3865 12.148C75.3678 12.3827 76.3385 12.6387 77.2985 12.916C78.2798 13.1933 79.1758 13.556 79.9865 14.004C80.8185 14.4307 81.4798 15.0067 81.9705 15.732C82.4825 16.4573 82.7385 17.4067 82.7385 18.58C82.7385 19.668 82.4398 20.6813 81.8425 21.62C81.2452 22.5373 80.3278 23.284 79.0905 23.86C77.8745 24.4147 76.3065 24.692 74.3865 24.692ZM94.266 24.66C92.6447 24.66 91.1833 24.2973 89.882 23.572C88.602 22.8253 87.5887 21.812 86.842 20.532C86.0953 19.2307 85.722 17.748 85.722 16.084C85.722 14.3987 86.0953 12.916 86.842 11.636C87.5887 10.356 88.602 9.35333 89.882 8.628C91.162 7.90267 92.6233 7.54 94.266 7.54C95.93 7.54 97.402 7.90267 98.682 8.628C99.9833 9.35333 100.997 10.356 101.722 11.636C102.469 12.916 102.842 14.3987 102.842 16.084C102.842 17.748 102.469 19.2307 101.722 20.532C100.997 21.812 99.9833 22.8253 98.682 23.572C97.3807 24.2973 95.9087 24.66 94.266 24.66ZM94.266 22.644C95.482 22.644 96.5593 22.3773 97.498 21.844C98.4367 21.2893 99.1727 20.5213 99.706 19.54C100.261 18.5373 100.538 17.3853 100.538 16.084C100.538 14.7613 100.261 13.6093 99.706 12.628C99.1727 11.6467 98.4367 10.8893 97.498 10.356C96.5593 9.80133 95.4927 9.524 94.298 9.524C93.1033 9.524 92.0367 9.80133 91.098 10.356C90.1593 10.8893 89.4127 11.6467 88.858 12.628C88.3033 13.6093 88.026 14.7613 88.026 16.084C88.026 17.3853 88.3033 18.5373 88.858 19.54C89.4127 20.5213 90.1593 21.2893 91.098 21.844C92.0367 22.3773 93.0927 22.644 94.266 22.644ZM107.481 24.5V0.755999H109.753V24.5H107.481ZM123.018 24.66C121.589 24.66 120.341 24.3933 119.274 23.86C118.208 23.3267 117.376 22.5267 116.778 21.46C116.202 20.3933 115.914 19.06 115.914 17.46V7.7H118.186V17.204C118.186 18.996 118.624 20.3507 119.498 21.268C120.394 22.164 121.642 22.612 123.242 22.612C124.416 22.612 125.429 22.3773 126.282 21.908C127.157 21.4173 127.818 20.7133 128.266 19.796C128.736 18.8787 128.97 17.78 128.97 16.5V7.7H131.242V24.5H129.066V19.892L129.418 20.724C128.885 21.9613 128.053 22.932 126.922 23.636C125.813 24.3187 124.512 24.66 123.018 24.66ZM142.886 24.66C141.308 24.66 140.092 24.2333 139.238 23.38C138.385 22.5267 137.958 21.3213 137.958 19.764V3.988H140.23V19.636C140.23 20.6173 140.476 21.3747 140.966 21.908C141.478 22.4413 142.204 22.708 143.142 22.708C144.145 22.708 144.977 22.42 145.638 21.844L146.438 23.476C145.99 23.8813 145.446 24.18 144.806 24.372C144.188 24.564 143.548 24.66 142.886 24.66ZM134.95 9.588V7.7H145.35V9.588H134.95ZM150.574 24.5V7.7H152.846V24.5H150.574ZM151.726 3.988C151.257 3.988 150.862 3.828 150.542 3.508C150.222 3.188 150.062 2.804 150.062 2.356C150.062 1.908 150.222 1.53466 150.542 1.236C150.862 0.915998 151.257 0.755999 151.726 0.755999C152.196 0.755999 152.59 0.905332 152.91 1.204C153.23 1.50267 153.39 1.876 153.39 2.324C153.39 2.79333 153.23 3.188 152.91 3.508C152.612 3.828 152.217 3.988 151.726 3.988ZM166.016 24.66C164.395 24.66 162.933 24.2973 161.632 23.572C160.352 22.8253 159.339 21.812 158.592 20.532C157.845 19.2307 157.472 17.748 157.472 16.084C157.472 14.3987 157.845 12.916 158.592 11.636C159.339 10.356 160.352 9.35333 161.632 8.628C162.912 7.90267 164.373 7.54 166.016 7.54C167.68 7.54 169.152 7.90267 170.432 8.628C171.733 9.35333 172.747 10.356 173.472 11.636C174.219 12.916 174.592 14.3987 174.592 16.084C174.592 17.748 174.219 19.2307 173.472 20.532C172.747 21.812 171.733 22.8253 170.432 23.572C169.131 24.2973 167.659 24.66 166.016 24.66ZM166.016 22.644C167.232 22.644 168.309 22.3773 169.248 21.844C170.187 21.2893 170.923 20.5213 171.456 19.54C172.011 18.5373 172.288 17.3853 172.288 16.084C172.288 14.7613 172.011 13.6093 171.456 12.628C170.923 11.6467 170.187 10.8893 169.248 10.356C168.309 9.80133 167.243 9.524 166.048 9.524C164.853 9.524 163.787 9.80133 162.848 10.356C161.909 10.8893 161.163 11.6467 160.608 12.628C160.053 13.6093 159.776 14.7613 159.776 16.084C159.776 17.3853 160.053 18.5373 160.608 19.54C161.163 20.5213 161.909 21.2893 162.848 21.844C163.787 22.3773 164.843 22.644 166.016 22.644ZM187.807 7.54C189.172 7.54 190.367 7.80667 191.391 8.34C192.436 8.852 193.247 9.64133 193.823 10.708C194.42 11.7747 194.719 13.1187 194.719 14.74V24.5H192.447V14.964C192.447 13.1933 191.999 11.86 191.103 10.964C190.228 10.0467 188.991 9.588 187.391 9.588C186.196 9.588 185.151 9.83333 184.255 10.324C183.38 10.7933 182.697 11.4867 182.207 12.404C181.737 13.3 181.503 14.388 181.503 15.668V24.5H179.231V7.7H181.407V12.308L181.055 11.444C181.588 10.228 182.441 9.27867 183.615 8.596C184.788 7.892 186.185 7.54 187.807 7.54ZM205.368 24.66C203.981 24.66 202.669 24.468 201.432 24.084C200.194 23.6787 199.224 23.1773 198.52 22.58L199.544 20.788C200.226 21.3 201.101 21.748 202.168 22.132C203.234 22.4947 204.354 22.676 205.528 22.676C207.128 22.676 208.28 22.4307 208.984 21.94C209.688 21.428 210.04 20.756 210.04 19.924C210.04 19.3053 209.837 18.8253 209.432 18.484C209.048 18.1213 208.536 17.8547 207.896 17.684C207.256 17.492 206.541 17.332 205.752 17.204C204.962 17.076 204.173 16.9267 203.384 16.756C202.616 16.5853 201.912 16.34 201.272 16.02C200.632 15.6787 200.109 15.22 199.704 14.644C199.32 14.068 199.128 13.3 199.128 12.34C199.128 11.4227 199.384 10.6013 199.896 9.876C200.408 9.15067 201.154 8.58533 202.136 8.18C203.138 7.75333 204.354 7.54 205.784 7.54C206.872 7.54 207.96 7.68933 209.048 7.988C210.136 8.26533 211.032 8.63867 211.736 9.108L210.744 10.932C209.997 10.42 209.197 10.0573 208.344 9.844C207.49 9.60933 206.637 9.492 205.784 9.492C204.269 9.492 203.149 9.75867 202.424 10.292C201.72 10.804 201.368 11.4653 201.368 12.276C201.368 12.916 201.56 13.4173 201.944 13.78C202.349 14.1427 202.872 14.4307 203.512 14.644C204.173 14.836 204.888 14.996 205.656 15.124C206.445 15.252 207.224 15.412 207.992 15.604C208.781 15.7747 209.496 16.02 210.136 16.34C210.797 16.6387 211.32 17.076 211.704 17.652C212.109 18.2067 212.312 18.9427 212.312 19.86C212.312 20.8413 212.034 21.6947 211.48 22.42C210.946 23.124 210.157 23.6787 209.112 24.084C208.088 24.468 206.84 24.66 205.368 24.66Z" fill="#2166D4"/>
</svg>
