<svg width="64" height="24" viewBox="0 0 64 24" fill="none" xmlns="http://www.w3.org/2000/svg">
<path d="M0.064 23L4.544 0.599998H14.496C17.504 0.599998 19.8187 1.25067 21.44 2.552C23.0827 3.85333 23.904 5.67733 23.904 8.024C23.904 9.90133 23.4347 11.5547 22.496 12.984C21.5787 14.4133 20.2667 15.5227 18.56 16.312C16.8747 17.1013 14.88 17.496 12.576 17.496H5.344L9.376 14.2L7.616 23H0.064ZM9.184 15.096L6.528 11.672H12.96C14.0053 11.672 14.816 11.416 15.392 10.904C15.968 10.3707 16.256 9.63467 16.256 8.696C16.256 7.88533 16 7.30933 15.488 6.968C14.9973 6.60533 14.3147 6.424 13.44 6.424H7.584L11.616 2.904L9.184 15.096ZM32.7413 23.512C31.4186 23.512 30.1493 23.416 28.9333 23.224C27.7173 23.032 26.6079 22.7653 25.6053 22.424C24.6239 22.0613 23.7706 21.6667 23.0452 21.24L25.9573 15.672C26.7893 16.1413 27.6213 16.536 28.4533 16.856C29.3066 17.1547 30.1493 17.3787 30.9813 17.528C31.8346 17.6773 32.6773 17.752 33.5093 17.752C34.1706 17.752 34.7146 17.6987 35.1413 17.592C35.5893 17.4853 35.9199 17.336 36.1333 17.144C36.3679 16.9307 36.4853 16.696 36.4853 16.44C36.4853 16.0987 36.2933 15.8213 35.9093 15.608C35.5253 15.3947 35.0133 15.2027 34.3733 15.032C33.7546 14.8613 33.0613 14.6907 32.2933 14.52C31.5466 14.328 30.7893 14.0933 30.0213 13.816C29.2533 13.5173 28.5493 13.144 27.9093 12.696C27.2906 12.248 26.7893 11.6827 26.4053 11C26.0213 10.3173 25.8293 9.48533 25.8293 8.504C25.8293 6.79733 26.2773 5.31467 27.1733 4.056C28.0906 2.79733 29.3919 1.82667 31.0773 1.144C32.7839 0.439999 34.8106 0.0879993 37.1573 0.0879993C38.8213 0.0879993 40.3679 0.258666 41.7973 0.599998C43.2479 0.919998 44.4959 1.38933 45.5413 2.008L42.8213 7.512C41.9253 6.95733 40.9439 6.54133 39.8773 6.264C38.8319 5.98667 37.7653 5.848 36.6773 5.848C35.9519 5.848 35.3439 5.92267 34.8533 6.072C34.3626 6.2 33.9893 6.38133 33.7333 6.616C33.4986 6.85067 33.3813 7.096 33.3813 7.352C33.3813 7.69333 33.5733 7.98133 33.9573 8.216C34.3413 8.42933 34.8533 8.62133 35.4933 8.792C36.1333 8.94133 36.8266 9.112 37.5733 9.304C38.3413 9.47467 39.0986 9.69867 39.8453 9.976C40.6133 10.232 41.3173 10.584 41.9573 11.032C42.5973 11.4587 43.1093 12.0133 43.4933 12.696C43.8773 13.3573 44.0693 14.1787 44.0693 15.16C44.0693 16.824 43.6106 18.2853 42.6933 19.544C41.7759 20.7813 40.4639 21.752 38.7573 22.456C37.0719 23.16 35.0666 23.512 32.7413 23.512ZM44.8765 23L49.3565 0.599998H56.9085L53.6125 17.144H63.7245L62.5405 23H44.8765Z" fill="white"/>
</svg>
